<?xml version="1.0" encoding="UTF-8" ?>
<svg version="1.1" width="32" height="32" xmlns="http://www.w3.org/2000/svg" shape-rendering="crispEdges">
<rect x="1" y="0" width="30" height="5" fill="#000000" />
<rect x="0" y="1" width="1" height="30" fill="#000000" />
<rect x="31" y="1" width="1" height="30" fill="#000000" />
<rect x="1" y="5" width="4" height="27" fill="#000000" />
<rect x="5" y="5" width="7" height="1" fill="#FFFFFF" />
<rect x="12" y="5" width="1" height="27" fill="#000000" />
<rect x="13" y="5" width="7" height="1" fill="#FFFFFF" />
<rect x="20" y="5" width="1" height="27" fill="#000000" />
<rect x="21" y="5" width="7" height="1" fill="#FFFFFF" />
<rect x="28" y="5" width="3" height="27" fill="#000000" />
<rect x="5" y="6" width="1" height="6" fill="#FFFFFF" />
<rect x="6" y="6" width="5" height="1" fill="#000000" />
<rect x="11" y="6" width="1" height="6" fill="#FFFFFF" />
<rect x="13" y="6" width="1" height="6" fill="#FFFFFF" />
<rect x="14" y="6" width="5" height="1" fill="#000000" />
<rect x="19" y="6" width="1" height="6" fill="#FFFFFF" />
<rect x="21" y="6" width="1" height="6" fill="#FFFFFF" />
<rect x="22" y="6" width="4" height="1" fill="#000000" />
<rect x="26" y="6" width="2" height="1" fill="#FFFFFF" />
<rect x="6" y="7" width="2" height="4" fill="#000000" />
<rect x="8" y="7" width="3" height="1" fill="#FFFFFF" />
<rect x="14" y="7" width="2" height="2" fill="#000000" />
<rect x="16" y="7" width="3" height="1" fill="#FFFFFF" />
<rect x="22" y="7" width="2" height="4" fill="#000000" />
<rect x="24" y="7" width="1" height="2" fill="#FFFFFF" />
<rect x="25" y="7" width="2" height="2" fill="#000000" />
<rect x="27" y="7" width="1" height="5" fill="#FFFFFF" />
<rect x="8" y="8" width="2" height="1" fill="#000000" />
<rect x="10" y="8" width="1" height="2" fill="#FFFFFF" />
<rect x="16" y="8" width="3" height="1" fill="#000000" />
<rect x="8" y="9" width="2" height="1" fill="#FFFFFF" />
<rect x="14" y="9" width="3" height="1" fill="#FFFFFF" />
<rect x="17" y="9" width="2" height="2" fill="#000000" />
<rect x="24" y="9" width="2" height="1" fill="#000000" />
<rect x="26" y="9" width="1" height="3" fill="#FFFFFF" />
<rect x="8" y="10" width="3" height="1" fill="#000000" />
<rect x="14" y="10" width="3" height="1" fill="#000000" />
<rect x="24" y="10" width="2" height="2" fill="#FFFFFF" />
<rect x="6" y="11" width="5" height="1" fill="#FFFFFF" />
<rect x="14" y="11" width="5" height="1" fill="#FFFFFF" />
<rect x="22" y="11" width="2" height="1" fill="#FFFFFF" />
<rect x="5" y="12" width="7" height="1" fill="#000000" />
<rect x="13" y="12" width="7" height="9" fill="#000000" />
<rect x="21" y="12" width="7" height="1" fill="#000000" />
<rect x="5" y="13" width="7" height="1" fill="#FFFFFF" />
<rect x="21" y="13" width="7" height="1" fill="#FFFFFF" />
<rect x="5" y="14" width="1" height="6" fill="#FFFFFF" />
<rect x="6" y="14" width="2" height="3" fill="#000000" />
<rect x="8" y="14" width="2" height="1" fill="#FFFFFF" />
<rect x="10" y="14" width="1" height="5" fill="#000000" />
<rect x="11" y="14" width="1" height="6" fill="#FFFFFF" />
<rect x="21" y="14" width="2" height="1" fill="#FFFFFF" />
<rect x="23" y="14" width="3" height="1" fill="#000000" />
<rect x="26" y="14" width="2" height="1" fill="#FFFFFF" />
<rect x="8" y="15" width="1" height="3" fill="#000000" />
<rect x="9" y="15" width="1" height="1" fill="#FFFFFF" />
<rect x="21" y="15" width="1" height="5" fill="#FFFFFF" />
<rect x="22" y="15" width="2" height="3" fill="#000000" />
<rect x="24" y="15" width="1" height="3" fill="#FFFFFF" />
<rect x="25" y="15" width="2" height="3" fill="#000000" />
<rect x="27" y="15" width="1" height="5" fill="#FFFFFF" />
<rect x="9" y="16" width="1" height="3" fill="#000000" />
<rect x="6" y="17" width="1" height="2" fill="#000000" />
<rect x="7" y="17" width="1" height="3" fill="#FFFFFF" />
<rect x="8" y="18" width="1" height="2" fill="#FFFFFF" />
<rect x="22" y="18" width="1" height="2" fill="#FFFFFF" />
<rect x="23" y="18" width="3" height="1" fill="#000000" />
<rect x="26" y="18" width="1" height="2" fill="#FFFFFF" />
<rect x="6" y="19" width="1" height="1" fill="#FFFFFF" />
<rect x="9" y="19" width="2" height="1" fill="#FFFFFF" />
<rect x="23" y="19" width="3" height="1" fill="#FFFFFF" />
<rect x="5" y="20" width="7" height="1" fill="#000000" />
<rect x="21" y="20" width="7" height="1" fill="#000000" />
<rect x="5" y="21" width="7" height="1" fill="#FFFFFF" />
<rect x="13" y="21" width="7" height="7" fill="#FFFFFF" />
<rect x="21" y="21" width="7" height="1" fill="#FFFFFF" />
<rect x="5" y="22" width="1" height="6" fill="#FFFFFF" />
<rect x="6" y="22" width="5" height="1" fill="#000000" />
<rect x="11" y="22" width="1" height="6" fill="#FFFFFF" />
<rect x="21" y="22" width="1" height="6" fill="#FFFFFF" />
<rect x="22" y="22" width="4" height="1" fill="#000000" />
<rect x="26" y="22" width="2" height="1" fill="#FFFFFF" />
<rect x="6" y="23" width="2" height="4" fill="#000000" />
<rect x="8" y="23" width="3" height="1" fill="#FFFFFF" />
<rect x="22" y="23" width="2" height="4" fill="#000000" />
<rect x="24" y="23" width="1" height="2" fill="#FFFFFF" />
<rect x="25" y="23" width="2" height="2" fill="#000000" />
<rect x="27" y="23" width="1" height="5" fill="#FFFFFF" />
<rect x="8" y="24" width="1" height="2" fill="#FFFFFF" />
<rect x="9" y="24" width="2" height="3" fill="#000000" />
<rect x="24" y="25" width="2" height="1" fill="#000000" />
<rect x="26" y="25" width="1" height="1" fill="#FFFFFF" />
<rect x="8" y="26" width="1" height="1" fill="#000000" />
<rect x="24" y="26" width="1" height="2" fill="#FFFFFF" />
<rect x="25" y="26" width="2" height="1" fill="#000000" />
<rect x="6" y="27" width="5" height="1" fill="#FFFFFF" />
<rect x="22" y="27" width="2" height="1" fill="#FFFFFF" />
<rect x="25" y="27" width="2" height="1" fill="#FFFFFF" />
<rect x="5" y="28" width="7" height="4" fill="#000000" />
<rect x="13" y="28" width="7" height="4" fill="#000000" />
<rect x="21" y="28" width="7" height="4" fill="#000000" />
</svg>