<?xml version="1.0" encoding="UTF-8" ?>
<svg version="1.1" width="32" height="32" xmlns="http://www.w3.org/2000/svg" shape-rendering="crispEdges">
<rect x="1" y="0" width="30" height="2" fill="#000000" />
<rect x="0" y="1" width="1" height="30" fill="#000000" />
<rect x="31" y="1" width="1" height="30" fill="#000000" />
<rect x="1" y="2" width="2" height="1" fill="#000000" />
<rect x="3" y="2" width="11" height="1" fill="#FFFFFF" />
<rect x="14" y="2" width="17" height="1" fill="#000000" />
<rect x="1" y="3" width="1" height="29" fill="#000000" />
<rect x="2" y="3" width="4" height="1" fill="#FFFFFF" />
<rect x="6" y="3" width="5" height="3" fill="#000000" />
<rect x="11" y="3" width="4" height="1" fill="#FFFFFF" />
<rect x="15" y="3" width="16" height="14" fill="#000000" />
<rect x="2" y="4" width="3" height="1" fill="#FFFFFF" />
<rect x="5" y="4" width="1" height="9" fill="#000000" />
<rect x="11" y="4" width="1" height="4" fill="#000000" />
<rect x="12" y="4" width="3" height="1" fill="#FFFFFF" />
<rect x="2" y="5" width="2" height="9" fill="#FFFFFF" />
<rect x="4" y="5" width="1" height="7" fill="#000000" />
<rect x="12" y="5" width="1" height="3" fill="#000000" />
<rect x="13" y="5" width="2" height="9" fill="#FFFFFF" />
<rect x="6" y="6" width="2" height="1" fill="#000000" />
<rect x="8" y="6" width="2" height="5" fill="#FFFFFF" />
<rect x="10" y="6" width="1" height="1" fill="#000000" />
<rect x="6" y="7" width="1" height="7" fill="#000000" />
<rect x="7" y="7" width="1" height="3" fill="#FFFFFF" />
<rect x="10" y="7" width="1" height="3" fill="#FFFFFF" />
<rect x="11" y="8" width="2" height="1" fill="#FFFFFF" />
<rect x="11" y="9" width="2" height="3" fill="#000000" />
<rect x="7" y="10" width="1" height="4" fill="#000000" />
<rect x="10" y="10" width="1" height="4" fill="#000000" />
<rect x="8" y="11" width="2" height="3" fill="#000000" />
<rect x="4" y="12" width="1" height="3" fill="#FFFFFF" />
<rect x="11" y="12" width="1" height="1" fill="#000000" />
<rect x="12" y="12" width="1" height="3" fill="#FFFFFF" />
<rect x="5" y="13" width="1" height="2" fill="#FFFFFF" />
<rect x="11" y="13" width="1" height="2" fill="#FFFFFF" />
<rect x="2" y="14" width="1" height="4" fill="#000000" />
<rect x="3" y="14" width="1" height="1" fill="#FFFFFF" />
<rect x="6" y="14" width="5" height="1" fill="#FFFFFF" />
<rect x="13" y="14" width="1" height="1" fill="#FFFFFF" />
<rect x="14" y="14" width="1" height="4" fill="#000000" />
<rect x="3" y="15" width="11" height="2" fill="#000000" />
<rect x="3" y="17" width="11" height="1" fill="#FFFFFF" />
<rect x="15" y="17" width="3" height="1" fill="#000000" />
<rect x="18" y="17" width="11" height="1" fill="#FFFFFF" />
<rect x="29" y="17" width="2" height="1" fill="#000000" />
<rect x="2" y="18" width="3" height="1" fill="#FFFFFF" />
<rect x="5" y="18" width="1" height="11" fill="#000000" />
<rect x="6" y="18" width="5" height="3" fill="#FFFFFF" />
<rect x="11" y="18" width="1" height="11" fill="#000000" />
<rect x="12" y="18" width="3" height="1" fill="#FFFFFF" />
<rect x="15" y="18" width="2" height="14" fill="#000000" />
<rect x="17" y="18" width="4" height="1" fill="#FFFFFF" />
<rect x="21" y="18" width="6" height="3" fill="#000000" />
<rect x="27" y="18" width="3" height="1" fill="#FFFFFF" />
<rect x="30" y="18" width="1" height="14" fill="#000000" />
<rect x="2" y="19" width="2" height="1" fill="#FFFFFF" />
<rect x="4" y="19" width="1" height="9" fill="#000000" />
<rect x="12" y="19" width="1" height="9" fill="#000000" />
<rect x="13" y="19" width="2" height="1" fill="#FFFFFF" />
<rect x="17" y="19" width="3" height="1" fill="#FFFFFF" />
<rect x="20" y="19" width="1" height="4" fill="#000000" />
<rect x="27" y="19" width="1" height="4" fill="#000000" />
<rect x="28" y="19" width="2" height="10" fill="#FFFFFF" />
<rect x="2" y="20" width="1" height="9" fill="#FFFFFF" />
<rect x="3" y="20" width="1" height="7" fill="#000000" />
<rect x="13" y="20" width="1" height="7" fill="#000000" />
<rect x="14" y="20" width="1" height="9" fill="#FFFFFF" />
<rect x="17" y="20" width="2" height="9" fill="#FFFFFF" />
<rect x="19" y="20" width="1" height="2" fill="#000000" />
<rect x="6" y="21" width="2" height="1" fill="#FFFFFF" />
<rect x="8" y="21" width="1" height="5" fill="#000000" />
<rect x="9" y="21" width="2" height="1" fill="#FFFFFF" />
<rect x="21" y="21" width="3" height="3" fill="#000000" />
<rect x="24" y="21" width="2" height="1" fill="#FFFFFF" />
<rect x="26" y="21" width="1" height="1" fill="#000000" />
<rect x="6" y="22" width="1" height="1" fill="#FFFFFF" />
<rect x="7" y="22" width="1" height="5" fill="#000000" />
<rect x="9" y="22" width="1" height="5" fill="#000000" />
<rect x="10" y="22" width="1" height="1" fill="#FFFFFF" />
<rect x="19" y="22" width="1" height="2" fill="#FFFFFF" />
<rect x="24" y="22" width="1" height="7" fill="#000000" />
<rect x="25" y="22" width="2" height="1" fill="#FFFFFF" />
<rect x="6" y="23" width="1" height="5" fill="#000000" />
<rect x="10" y="23" width="1" height="5" fill="#000000" />
<rect x="20" y="23" width="1" height="2" fill="#FFFFFF" />
<rect x="25" y="23" width="1" height="6" fill="#000000" />
<rect x="26" y="23" width="2" height="1" fill="#FFFFFF" />
<rect x="19" y="24" width="1" height="4" fill="#000000" />
<rect x="21" y="24" width="1" height="2" fill="#FFFFFF" />
<rect x="22" y="24" width="2" height="1" fill="#000000" />
<rect x="26" y="24" width="1" height="4" fill="#000000" />
<rect x="27" y="24" width="1" height="1" fill="#FFFFFF" />
<rect x="20" y="25" width="1" height="4" fill="#000000" />
<rect x="22" y="25" width="1" height="1" fill="#FFFFFF" />
<rect x="23" y="25" width="1" height="4" fill="#000000" />
<rect x="27" y="25" width="1" height="2" fill="#000000" />
<rect x="8" y="26" width="1" height="4" fill="#FFFFFF" />
<rect x="21" y="26" width="2" height="3" fill="#000000" />
<rect x="3" y="27" width="1" height="3" fill="#FFFFFF" />
<rect x="7" y="27" width="1" height="3" fill="#FFFFFF" />
<rect x="9" y="27" width="1" height="3" fill="#FFFFFF" />
<rect x="13" y="27" width="1" height="3" fill="#FFFFFF" />
<rect x="27" y="27" width="1" height="3" fill="#FFFFFF" />
<rect x="4" y="28" width="1" height="2" fill="#FFFFFF" />
<rect x="6" y="28" width="1" height="2" fill="#FFFFFF" />
<rect x="10" y="28" width="1" height="2" fill="#FFFFFF" />
<rect x="12" y="28" width="1" height="2" fill="#FFFFFF" />
<rect x="19" y="28" width="1" height="2" fill="#FFFFFF" />
<rect x="26" y="28" width="1" height="2" fill="#FFFFFF" />
<rect x="2" y="29" width="1" height="3" fill="#000000" />
<rect x="5" y="29" width="1" height="1" fill="#FFFFFF" />
<rect x="11" y="29" width="1" height="1" fill="#FFFFFF" />
<rect x="14" y="29" width="1" height="3" fill="#000000" />
<rect x="17" y="29" width="1" height="3" fill="#000000" />
<rect x="18" y="29" width="1" height="1" fill="#FFFFFF" />
<rect x="20" y="29" width="6" height="1" fill="#FFFFFF" />
<rect x="28" y="29" width="1" height="1" fill="#FFFFFF" />
<rect x="29" y="29" width="1" height="3" fill="#000000" />
<rect x="3" y="30" width="11" height="2" fill="#000000" />
<rect x="18" y="30" width="11" height="2" fill="#000000" />
</svg>